<svg width="12" height="12" viewBox="0 0 12 12" fill="none" xmlns="http://www.w3.org/2000/svg">
<path fill-rule="evenodd" clip-rule="evenodd" d="M3.23483 2.23483C3.38128 2.08839 3.61872 2.08839 3.76517 2.23483L5.76516 4.23483C5.91161 4.38128 5.91161 4.61872 5.76516 4.76517C5.61872 4.91161 5.38128 4.91161 5.23483 4.76517L3.875 3.40533V9.5C3.875 9.70711 3.70711 9.875 3.5 9.875C3.29289 9.875 3.125 9.70711 3.125 9.5V3.40533L1.76517 4.76517C1.61872 4.91161 1.38128 4.91161 1.23483 4.76517C1.08839 4.61872 1.08839 4.38128 1.23483 4.23483L3.23483 2.23483Z" fill="#6E6893"/>
<path fill-rule="evenodd" clip-rule="evenodd" d="M8.5 2.125C8.70711 2.125 8.875 2.29289 8.875 2.5V8.59467L10.2348 7.23484C10.3813 7.08839 10.6187 7.08839 10.7652 7.23484C10.9116 7.38128 10.9116 7.61872 10.7652 7.76516L8.76517 9.76516C8.61872 9.91161 8.38128 9.91161 8.23483 9.76516L6.23483 7.76516C6.08839 7.61872 6.08839 7.38128 6.23483 7.23484C6.38128 7.08839 6.61872 7.08839 6.76517 7.23484L8.125 8.59467V2.5C8.125 2.29289 8.29289 2.125 8.5 2.125Z" fill="#6E6893"/>
</svg>
