<svg width="12" height="12" viewBox="0 0 12 12" fill="none" xmlns="http://www.w3.org/2000/svg">
<path fill-rule="evenodd" clip-rule="evenodd" d="M1.73483 7.23483C1.88128 7.08839 2.11872 7.08839 2.26517 7.23483L3.5 8.46967L4.73483 7.23483C4.88128 7.08839 5.11872 7.08839 5.26517 7.23483C5.41161 7.38128 5.41161 7.61872 5.26517 7.76517L3.76517 9.26517C3.61872 9.41161 3.38128 9.41161 3.23483 9.26517L1.73483 7.76517C1.58839 7.61872 1.58839 7.38128 1.73483 7.23483Z" fill="#6E6893"/>
<path fill-rule="evenodd" clip-rule="evenodd" d="M3.5 2.625C3.70711 2.625 3.875 2.79289 3.875 3V9C3.875 9.20711 3.70711 9.375 3.5 9.375C3.29289 9.375 3.125 9.20711 3.125 9V3C3.125 2.79289 3.29289 2.625 3.5 2.625Z" fill="#6E6893"/>
<path fill-rule="evenodd" clip-rule="evenodd" d="M8.5 1.75C8.33424 1.75 8.17527 1.81585 8.05806 1.93306C7.94085 2.05027 7.875 2.20924 7.875 2.375V3.875C7.875 4.04076 7.94085 4.19973 8.05806 4.31694C8.17527 4.43415 8.33424 4.5 8.5 4.5C8.66576 4.5 8.82473 4.43415 8.94194 4.31694C9.05915 4.19973 9.125 4.04076 9.125 3.875V2.375C9.125 2.20924 9.05915 2.05027 8.94194 1.93306C8.82473 1.81585 8.66576 1.75 8.5 1.75ZM8.5 1C8.86467 1 9.21441 1.14487 9.47227 1.40273C9.73013 1.66059 9.875 2.01033 9.875 2.375V3.875C9.875 4.23967 9.73013 4.58941 9.47227 4.84727C9.21441 5.10513 8.86467 5.25 8.5 5.25C8.13533 5.25 7.78559 5.10513 7.52773 4.84727C7.26987 4.58941 7.125 4.23967 7.125 3.875V2.375C7.125 2.01033 7.26987 1.66059 7.52773 1.40273C7.78559 1.14487 8.13533 1 8.5 1Z" fill="#6E6893"/>
<path fill-rule="evenodd" clip-rule="evenodd" d="M8.5 7.75C8.15482 7.75 7.875 8.02982 7.875 8.375C7.875 8.72018 8.15482 9 8.5 9C8.84518 9 9.125 8.72018 9.125 8.375C9.125 8.02982 8.84518 7.75 8.5 7.75ZM9.125 9.60007V9.875C9.125 10.0408 9.05915 10.1997 8.94194 10.3169C8.82473 10.4342 8.66576 10.5 8.5 10.5H7.75C7.54289 10.5 7.375 10.6679 7.375 10.875C7.375 11.0821 7.54289 11.25 7.75 11.25H8.5C8.86467 11.25 9.21441 11.1051 9.47227 10.8473C9.73013 10.5894 9.875 10.2397 9.875 9.875V8.375C9.875 7.61561 9.25939 7 8.5 7C7.74061 7 7.125 7.61561 7.125 8.375C7.125 9.13439 7.74061 9.75 8.5 9.75C8.72506 9.75 8.93748 9.69593 9.125 9.60007Z" fill="#6E6893"/>
</svg>
