<svg width="12" height="12" viewBox="0 0 12 12" fill="none" xmlns="http://www.w3.org/2000/svg">
<path fill-rule="evenodd" clip-rule="evenodd" d="M8.00642 7.88142C7.94264 7.94519 7.875 8.07772 7.875 8.375V9H9.125V8.375C9.125 8.07772 9.05736 7.94519 8.99358 7.88142C8.92981 7.81764 8.79728 7.75 8.5 7.75C8.20272 7.75 8.07019 7.81764 8.00642 7.88142ZM9.875 8.375C9.875 7.98228 9.78764 7.61481 9.52392 7.35108C9.26019 7.08736 8.89272 7 8.5 7C8.10728 7 7.73981 7.08736 7.47608 7.35108C7.21236 7.61481 7.125 7.98228 7.125 8.375V10.875C7.125 11.0821 7.29289 11.25 7.5 11.25C7.70711 11.25 7.875 11.0821 7.875 10.875V9.75H9.125V10.875C9.125 11.0821 9.29289 11.25 9.5 11.25C9.70711 11.25 9.875 11.0821 9.875 10.875V8.375Z" fill="#6E6893"/>
<path fill-rule="evenodd" clip-rule="evenodd" d="M7.125 1.375C7.125 1.16789 7.29289 1 7.5 1H9.5C9.63368 1 9.75725 1.07116 9.82434 1.18678C9.89144 1.3024 9.89191 1.44499 9.82559 1.56105L8.14619 4.5H9.5C9.70711 4.5 9.875 4.66789 9.875 4.875C9.875 5.08211 9.70711 5.25 9.5 5.25H7.5C7.36632 5.25 7.24275 5.17884 7.17566 5.06322C7.10856 4.9476 7.10809 4.80501 7.17441 4.68895L8.85381 1.75H7.5C7.29289 1.75 7.125 1.58211 7.125 1.375Z" fill="#6E6893"/>
<path fill-rule="evenodd" clip-rule="evenodd" d="M3.5 2.625C3.70711 2.625 3.875 2.79289 3.875 3V8.09467L4.73483 7.23484C4.88128 7.08839 5.11872 7.08839 5.26517 7.23484C5.41161 7.38128 5.41161 7.61872 5.26517 7.76516L3.76517 9.26516C3.61872 9.41161 3.38128 9.41161 3.23483 9.26516L1.73483 7.76516C1.58839 7.61872 1.58839 7.38128 1.73483 7.23484C1.88128 7.08839 2.11872 7.08839 2.26517 7.23484L3.125 8.09467V3C3.125 2.79289 3.29289 2.625 3.5 2.625Z" fill="#6E6893"/>
</svg>
