<svg width="12" height="12" viewBox="0 0 12 12" fill="none" xmlns="http://www.w3.org/2000/svg">
<path fill-rule="evenodd" clip-rule="evenodd" d="M8.00642 1.88142C7.94264 1.94519 7.875 2.07772 7.875 2.375V3H9.125V2.375C9.125 2.07772 9.05736 1.94519 8.99358 1.88142C8.92981 1.81764 8.79728 1.75 8.5 1.75C8.20272 1.75 8.07019 1.81764 8.00642 1.88142ZM9.875 2.375C9.875 1.98228 9.78764 1.61481 9.52392 1.35108C9.26019 1.08736 8.89272 1 8.5 1C8.10728 1 7.73981 1.08736 7.47608 1.35108C7.21236 1.61481 7.125 1.98228 7.125 2.375V4.875C7.125 5.08211 7.29289 5.25 7.5 5.25C7.70711 5.25 7.875 5.08211 7.875 4.875V3.75H9.125V4.875C9.125 5.08211 9.29289 5.25 9.5 5.25C9.70711 5.25 9.875 5.08211 9.875 4.875V2.375Z" fill="#6E6893"/>
<path fill-rule="evenodd" clip-rule="evenodd" d="M7.125 7.375C7.125 7.16789 7.29289 7 7.5 7H9.5C9.63368 7 9.75725 7.07116 9.82434 7.18678C9.89144 7.3024 9.89191 7.44499 9.82559 7.56105L8.14619 10.5H9.5C9.70711 10.5 9.875 10.6679 9.875 10.875C9.875 11.0821 9.70711 11.25 9.5 11.25H7.5C7.36632 11.25 7.24275 11.1788 7.17566 11.0632C7.10856 10.9476 7.10809 10.805 7.17441 10.6889L8.85381 7.75H7.5C7.29289 7.75 7.125 7.58211 7.125 7.375Z" fill="#6E6893"/>
<path fill-rule="evenodd" clip-rule="evenodd" d="M3.5 2.625C3.70711 2.625 3.875 2.79289 3.875 3V8.09467L4.73483 7.23484C4.88128 7.08839 5.11872 7.08839 5.26517 7.23484C5.41161 7.38128 5.41161 7.61872 5.26517 7.76516L3.76517 9.26516C3.61872 9.41161 3.38128 9.41161 3.23483 9.26516L1.73483 7.76516C1.58839 7.61872 1.58839 7.38128 1.73483 7.23484C1.88128 7.08839 2.11872 7.08839 2.26517 7.23484L3.125 8.09467V3C3.125 2.79289 3.29289 2.625 3.5 2.625Z" fill="#6E6893"/>
</svg>
