<svg width="12" height="12" viewBox="0 0 12 12" fill="none" xmlns="http://www.w3.org/2000/svg">
<path fill-rule="evenodd" clip-rule="evenodd" d="M1.73483 7.23483C1.88128 7.08839 2.11872 7.08839 2.26517 7.23483L3.5 8.46967L4.73483 7.23483C4.88128 7.08839 5.11872 7.08839 5.26517 7.23483C5.41161 7.38128 5.41161 7.61872 5.26517 7.76517L3.76517 9.26517C3.61872 9.41161 3.38128 9.41161 3.23483 9.26517L1.73483 7.76517C1.58839 7.61872 1.58839 7.38128 1.73483 7.23483Z" fill="#6E6893"/>
<path fill-rule="evenodd" clip-rule="evenodd" d="M3.5 2.625C3.70711 2.625 3.875 2.79289 3.875 3V9C3.875 9.20711 3.70711 9.375 3.5 9.375C3.29289 9.375 3.125 9.20711 3.125 9V3C3.125 2.79289 3.29289 2.625 3.5 2.625Z" fill="#6E6893"/>
<path fill-rule="evenodd" clip-rule="evenodd" d="M8.5 7.75C8.33424 7.75 8.17527 7.81585 8.05806 7.93306C7.94085 8.05027 7.875 8.20924 7.875 8.375V9.875C7.875 10.0408 7.94085 10.1997 8.05806 10.3169C8.17527 10.4342 8.33424 10.5 8.5 10.5C8.66576 10.5 8.82473 10.4342 8.94194 10.3169C9.05915 10.1997 9.125 10.0408 9.125 9.875V8.375C9.125 8.20924 9.05915 8.05027 8.94194 7.93306C8.82473 7.81585 8.66576 7.75 8.5 7.75ZM8.5 7C8.86467 7 9.21441 7.14487 9.47227 7.40273C9.73013 7.66059 9.875 8.01033 9.875 8.375V9.875C9.875 10.2397 9.73013 10.5894 9.47227 10.8473C9.21441 11.1051 8.86467 11.25 8.5 11.25C8.13533 11.25 7.78559 11.1051 7.52773 10.8473C7.26987 10.5894 7.125 10.2397 7.125 9.875V8.375C7.125 8.01033 7.26987 7.66059 7.52773 7.40273C7.78559 7.14487 8.13533 7 8.5 7Z" fill="#6E6893"/>
<path fill-rule="evenodd" clip-rule="evenodd" d="M8.5 1.75C8.15482 1.75 7.875 2.02982 7.875 2.375C7.875 2.72018 8.15482 3 8.5 3C8.84518 3 9.125 2.72018 9.125 2.375C9.125 2.02982 8.84518 1.75 8.5 1.75ZM9.125 3.60007V3.875C9.125 4.04076 9.05915 4.19973 8.94194 4.31694C8.82473 4.43415 8.66576 4.5 8.5 4.5H7.75C7.54289 4.5 7.375 4.66789 7.375 4.875C7.375 5.08211 7.54289 5.25 7.75 5.25H8.5C8.86467 5.25 9.21441 5.10513 9.47227 4.84727C9.73013 4.58941 9.875 4.23967 9.875 3.875V2.375C9.875 1.61561 9.25939 1 8.5 1C7.74061 1 7.125 1.61561 7.125 2.375C7.125 3.13439 7.74061 3.75 8.5 3.75C8.72506 3.75 8.93748 3.69593 9.125 3.60007Z" fill="#6E6893"/>
</svg>
