<svg width="12" height="12" viewBox="0 0 12 12" fill="none" xmlns="http://www.w3.org/2000/svg">
<path fill-rule="evenodd" clip-rule="evenodd" d="M1.14645 1.14645C1.34171 0.951184 1.65829 0.951184 1.85355 1.14645L10.8536 10.1464C11.0488 10.3417 11.0488 10.6583 10.8536 10.8536C10.6583 11.0488 10.3417 11.0488 10.1464 10.8536L1.14645 1.85355C0.951184 1.65829 0.951184 1.34171 1.14645 1.14645Z" fill="#6E6893"/>
<path fill-rule="evenodd" clip-rule="evenodd" d="M5.64566 4.94009C5.84085 5.13542 5.84074 5.452 5.64541 5.6472C5.55157 5.74097 5.49883 5.86818 5.49878 6.00084C5.49873 6.1335 5.55139 6.26075 5.64516 6.35459C5.73893 6.44843 5.86614 6.50117 5.99881 6.50122C6.13147 6.50127 6.25871 6.44861 6.35255 6.35484C6.54788 6.15965 6.86447 6.15976 7.05966 6.35509C7.25485 6.55042 7.25474 6.867 7.05941 7.0622C6.77797 7.34344 6.39633 7.50136 5.99845 7.50122C5.60057 7.50108 5.21905 7.34289 4.9378 7.06145C4.65656 6.78 4.49864 6.39837 4.49878 6.00049C4.49892 5.60261 4.65711 5.22108 4.93855 4.93984C5.13388 4.74465 5.45047 4.74476 5.64566 4.94009Z" fill="#6E6893"/>
<path fill-rule="evenodd" clip-rule="evenodd" d="M5.7153 3.00846L9.7207 7.0095C9.96114 6.70914 10.1944 6.37292 10.42 5.99995C9.17108 3.93472 7.69359 3 6 3L5.99823 3C5.90377 2.99966 5.80941 3.00249 5.7153 3.00846ZM6.00089 2C5.50818 1.99834 5.0177 2.06627 4.54398 2.20178C4.37364 2.25051 4.2418 2.38575 4.19743 2.55729C4.15306 2.72882 4.20279 2.91103 4.32814 3.03624L9.39514 8.09774C9.49134 8.19384 9.62252 8.24661 9.75847 8.2439C9.89441 8.24119 10.0234 8.18323 10.1157 8.08338C10.5914 7.56874 11.0299 6.9552 11.4341 6.24814C11.522 6.09441 11.522 5.90566 11.4341 5.75192C10.0466 3.32387 8.24048 2.00035 6.00089 2ZM3.72979 3.04882C3.8848 3.27735 3.8252 3.58828 3.59667 3.74329C2.87455 4.23311 2.19915 4.97685 1.57996 6.00006C2.82892 8.06528 4.30641 9 6 9C6.86969 9 7.66461 8.75521 8.39893 8.25997C8.62787 8.10556 8.93863 8.16598 9.09303 8.39492C9.24744 8.62386 9.18702 8.93463 8.95808 9.08903C8.06139 9.69379 7.07231 10 6 10C3.75999 10 1.9536 8.67645 0.565884 6.24808C0.478029 6.09434 0.478039 5.9056 0.565912 5.75187C1.27641 4.50889 2.09557 3.55315 3.03533 2.91571C3.26386 2.7607 3.57478 2.8203 3.72979 3.04882Z" fill="#6E6893"/>
</svg>
