<svg width="12" height="12" viewBox="0 0 12 12" fill="none" xmlns="http://www.w3.org/2000/svg">
<path fill-rule="evenodd" clip-rule="evenodd" d="M1.57993 6C2.82889 8.06526 4.30639 9 6 9C7.69361 9 9.1711 8.06526 10.4201 6C9.1711 3.93474 7.69361 3 6 3C4.30639 3 2.82889 3.93474 1.57993 6ZM0.565884 5.75192C1.9536 3.32355 3.75999 2 6 2C8.24001 2 10.0464 3.32355 11.4341 5.75192C11.522 5.90564 11.522 6.09436 11.4341 6.24808C10.0464 8.67645 8.24001 10 6 10C3.75999 10 1.9536 8.67645 0.565884 6.24808C0.478039 6.09436 0.478039 5.90564 0.565884 5.75192ZM6 5.5C5.72386 5.5 5.5 5.72386 5.5 6C5.5 6.27614 5.72386 6.5 6 6.5C6.27614 6.5 6.5 6.27614 6.5 6C6.5 5.72386 6.27614 5.5 6 5.5ZM4.5 6C4.5 5.17157 5.17157 4.5 6 4.5C6.82843 4.5 7.5 5.17157 7.5 6C7.5 6.82843 6.82843 7.5 6 7.5C5.17157 7.5 4.5 6.82843 4.5 6Z" fill="#6E6893"/>
</svg>
