<svg width="16" height="16" viewBox="0 0 16 16" fill="none" xmlns="http://www.w3.org/2000/svg">
<path fill-rule="evenodd" clip-rule="evenodd" d="M1.9165 4.66667C1.9165 4.25245 2.25229 3.91667 2.6665 3.91667H13.3332C13.7474 3.91667 14.0832 4.25245 14.0832 4.66667C14.0832 5.08088 13.7474 5.41667 13.3332 5.41667H2.6665C2.25229 5.41667 1.9165 5.08088 1.9165 4.66667Z" fill="white"/>
<path fill-rule="evenodd" clip-rule="evenodd" d="M3.27089 3.91926C3.68367 3.88486 4.04618 4.1916 4.08058 4.60438L4.74725 12.6044C4.74897 12.6251 4.74984 12.6459 4.74984 12.6667C4.74984 12.8214 4.8113 12.9697 4.92069 13.0791C5.03009 13.1885 5.17846 13.25 5.33317 13.25H10.6665C10.8212 13.25 10.9696 13.1885 11.079 13.0791C11.1884 12.9697 11.2498 12.8214 11.2498 12.6667C11.2498 12.6459 11.2507 12.6251 11.2524 12.6044L11.9191 4.60438C11.9535 4.1916 12.316 3.88486 12.7288 3.91926C13.1416 3.95366 13.4483 4.31617 13.4139 4.72895L12.7495 12.7013C12.7406 13.2413 12.5222 13.7573 12.1396 14.1398C11.7489 14.5305 11.219 14.75 10.6665 14.75H5.33317C4.78064 14.75 4.25073 14.5305 3.86003 14.1398C3.4775 13.7573 3.2591 13.2413 3.25012 12.7013L2.58576 4.72895C2.55136 4.31617 2.8581 3.95366 3.27089 3.91926Z" fill="white"/>
<path fill-rule="evenodd" clip-rule="evenodd" d="M6.74984 2.75V4.66667C6.74984 5.08088 6.41405 5.41667 5.99984 5.41667C5.58562 5.41667 5.24984 5.08088 5.24984 4.66667V2.66667C5.24984 2.29094 5.39909 1.93061 5.66477 1.66493C5.93045 1.39926 6.29078 1.25 6.6665 1.25H9.33317C9.70889 1.25 10.0692 1.39926 10.3349 1.66493C10.6006 1.93061 10.7498 2.29094 10.7498 2.66667V4.66667C10.7498 5.08088 10.4141 5.41667 9.99984 5.41667C9.58562 5.41667 9.24984 5.08088 9.24984 4.66667V2.75H6.74984Z" fill="white"/>
</svg>
